<svg height="512pt" viewBox="0 0 512 512" width="512pt" xmlns="http://www.w3.org/2000/svg"><path d="m480 271.996094c0 35.347656-28.652344 64-64 64s-64-28.652344-64-64c0-35.34375 28.652344-64 64-64s64 28.65625 64 64zm0 0" fill="#ffe0b2"/><path d="m160 271.996094c0 35.347656-28.652344 64-64 64s-64-28.652344-64-64c0-35.34375 28.652344-64 64-64s64 28.65625 64 64zm0 0" fill="#ffe0b2"/><path d="m512 511.996094h-192v-48c0-53.019532 42.980469-96 96-96s96 42.980468 96 96zm0 0" fill="#4dd0e1"/><path d="m192 511.996094h-192v-48c0-53.019532 42.980469-96 96-96s96 42.980468 96 96zm0 0" fill="#4dd0e1"/><path d="m233.375 162.269531-53.183594-53.183593c-10.574218-10.140626-17.488281-23.5-19.664062-37.984376-3.175782-24.09375 7.8125-47.859374 28.226562-61.042968 20.410156-13.183594 46.59375-13.425782 67.246094-.621094 20.652344-12.804688 46.835938-12.5625 67.246094.621094 20.414062 13.183594 31.402344 36.949218 28.226562 61.042968-2.175781 14.484376-9.089844 27.84375-19.664062 37.984376l-53.183594 53.183593c-12.496094 12.492188-32.753906 12.492188-45.25 0zm0 0" fill="#ef5350"/><path d="m320 271.996094c0 35.347656-28.652344 64-64 64s-64-28.652344-64-64c0-35.34375 28.652344-64 64-64s64 28.65625 64 64zm0 0" fill="#ffe0b2"/><path d="m352 511.996094h-192v-48c0-53.019532 42.980469-96 96-96s96 42.980468 96 96zm0 0" fill="#80deea"/><path d="m288 31.996094h32v32h-32zm0 0" fill="#fff"/><path d="m333.585938 66.398438-66.273438 66.285156c-6.25 6.246094-16.375 6.246094-22.625 0l-66.273438-66.285156c-6.691406-6.765626-11.738281-14.976563-14.75-24-8.183593 22.65625-2.421874 48.003906 14.75 64.894531l54.960938 54.960937c12.496094 12.492188 32.753906 12.492188 45.25 0l54.960938-54.960937c17.171874-16.890625 22.933593-42.238281 14.75-64.894531-3.011719 9.023437-8.058594 17.234374-14.75 24zm0 0" fill="#e53935"/></svg>