<svg id="Capa_1" enable-background="new 0 0 512 512" height="512" viewBox="0 0 512 512" width="512" xmlns="http://www.w3.org/2000/svg"><g><g><path d="m474.034 146.648h-436.115v-91.581c0-16.959 13.748-30.708 30.708-30.708h374.699c16.959 0 30.708 13.748 30.708 30.708z" fill="#fe646f"/><path d="m443.326 24.359h-30.446c16.96 0 30.708 13.748 30.708 30.708v91.582h30.446v-91.582c0-16.96-13.748-30.708-30.708-30.708z" fill="#fd4755"/><g><path d="m418.752 48.718c-4.204 0-7.611-3.408-7.611-7.611v-33.496c0-4.204 3.407-7.611 7.611-7.611s7.612 3.408 7.612 7.611v33.495c0 4.204-3.408 7.612-7.612 7.612z" fill="#918291"/></g><g><path d="m338.132 48.718c-4.204 0-7.611-3.408-7.611-7.611v-33.496c0-4.204 3.407-7.611 7.611-7.611s7.612 3.408 7.612 7.611v33.495c-.001 4.204-3.408 7.612-7.612 7.612z" fill="#918291"/></g><g><path d="m257.512 48.718c-4.204 0-7.611-3.408-7.611-7.611v-33.496c0-4.204 3.407-7.611 7.611-7.611s7.611 3.408 7.611 7.611v33.495c.001 4.204-3.406 7.612-7.611 7.612z" fill="#918291"/></g><g><path d="m176.892 48.718c-4.204 0-7.611-3.408-7.611-7.611v-33.496c0-4.204 3.407-7.611 7.611-7.611s7.611 3.408 7.611 7.611v33.495c0 4.204-3.407 7.612-7.611 7.612z" fill="#918291"/></g><g><path d="m96.273 48.718c-4.204 0-7.611-3.408-7.611-7.611v-33.496c-.001-4.203 3.406-7.611 7.611-7.611s7.611 3.408 7.611 7.611v33.495c0 4.204-3.407 7.612-7.611 7.612z" fill="#918291"/></g></g><g><path d="m321.804 94.822h-131.655c-4.204 0-7.611-3.408-7.611-7.611s3.407-7.611 7.611-7.611h131.655c4.204 0 7.611 3.408 7.611 7.611s-3.407 7.611-7.611 7.611z" fill="#e8edf2"/></g><g><path d="m443.326 512h-374.699c-16.959 0-30.708-13.748-30.708-30.708l.047-334.644h436.115l-.047 334.644c0 16.96-13.748 30.708-30.708 30.708z" fill="#f3f0f3"/><path d="m443.631 146.648c-.091 25.133-.183 50.265-.274 75.398-.516 142.063-115.244 257.263-257.304 258.363-49.291.382-98.581.763-147.872 1.145-.086 0-.17-.006-.255-.006.137 16.841 13.827 30.452 30.701 30.452h374.699c16.96 0 30.708-13.748 30.708-30.708l.047-334.644z" fill="#e2dee2"/><path d="m310.211 342.774 4.709 9.541c.712 1.443 2.088 2.443 3.681 2.674l10.529 1.53c4.009.583 5.61 5.51 2.709 8.338l-7.619 7.427c-1.152 1.123-1.678 2.741-1.406 4.327l1.799 10.486c.685 3.993-3.506 7.038-7.093 5.153l-9.417-4.951c-1.424-.749-3.125-.749-4.549 0l-9.417 4.951c-3.586 1.885-7.778-1.16-7.093-5.153l1.799-10.486c.272-1.586-.254-3.204-1.406-4.327l-7.619-7.427c-2.901-2.828-1.3-7.755 2.709-8.338l10.529-1.53c1.592-.231 2.969-1.231 3.681-2.674l4.709-9.541c1.791-3.634 6.972-3.634 8.765 0z" fill="#fe646f"/><g><path d="m331.839 364.856c2.901-2.828 1.3-7.755-2.709-8.338l-10.529-1.53c-1.592-.231-2.969-1.231-3.681-2.674l-4.709-9.541c-1.793-3.633-6.974-3.633-8.767 0l-4.503 9.124 2.842 5.758c.712 1.443 2.089 2.443 3.681 2.674 8.316 1.208 11.637 11.429 5.619 17.294-1.152 1.123-1.678 2.741-1.406 4.327l.966 5.631 8.877 4.667c3.586 1.885 7.777-1.16 7.093-5.153l-1.798-10.486c-.272-1.586.254-3.204 1.406-4.327z" fill="#fd4755"/></g><g><g fill="#918291"><circle cx="106.422" cy="215.152" r="22.834"/><circle cx="206.125" cy="215.152" r="22.834"/><circle cx="305.828" cy="215.152" r="22.834"/><circle cx="405.53" cy="215.152" r="22.834"/><circle cx="106.422" cy="291.267" r="22.834"/><circle cx="206.125" cy="291.267" r="22.834"/><circle cx="305.828" cy="291.267" r="22.834"/><circle cx="405.53" cy="291.267" r="22.834"/><circle cx="106.422" cy="367.382" r="22.834"/><circle cx="206.125" cy="367.382" r="22.834"/><circle cx="405.53" cy="367.382" r="22.834"/></g><path d="m405.53 390.216c12.611 0 22.834-10.223 22.834-22.835 0-10.481-7.064-19.306-16.689-21.991-6.988 12.772-15.019 24.89-23.98 36.243 4.186 5.23 10.617 8.583 17.835 8.583z" fill="#7a6d79"/><circle cx="106.422" cy="443.497" fill="#918291" r="22.834"/><circle cx="206.125" cy="443.497" fill="#918291" r="22.834"/><circle cx="305.828" cy="443.497" fill="#918291" r="22.834"/><path d="m305.828 466.331c12.611 0 22.835-10.223 22.835-22.835 0-2.261-.334-4.444-.946-6.507-12.339 8.227-25.422 15.423-39.13 21.469 4.186 4.821 10.355 7.873 17.241 7.873z" fill="#7a6d79"/><circle cx="405.53" cy="443.497" fill="#7a6d79" r="22.834"/></g></g></g></svg>