<svg id="Capa_1" enable-background="new 0 0 510 510" height="512" viewBox="0 0 510 510" width="512" xmlns="http://www.w3.org/2000/svg" xmlns:xlink="http://www.w3.org/1999/xlink"><linearGradient id="SVGID_1_" gradientUnits="userSpaceOnUse" x1="235.088" x2="257.755" y1="207.521" y2="364.126"><stop offset="0" stop-color="#ff7044"/><stop offset=".2346" stop-color="#fe653c"/><stop offset=".6509" stop-color="#fb4628"/><stop offset="1" stop-color="#f82814"/></linearGradient><linearGradient id="lg1"><stop offset="0" stop-color="#ffd945" stop-opacity="0"/><stop offset="1" stop-color="#fbed21"/></linearGradient><linearGradient id="SVGID_2_" gradientUnits="userSpaceOnUse" x1="249.067" x2="147.067" xlink:href="#lg1" y1="260.848" y2="-21.152"/><linearGradient id="SVGID_3_" gradientUnits="userSpaceOnUse" x1="308.823" x2="308.823" y1="149.454" y2="443.816"><stop offset="0" stop-color="#f82814" stop-opacity="0"/><stop offset="1" stop-color="#c0272d"/></linearGradient><linearGradient id="SVGID_4_" gradientUnits="userSpaceOnUse" x1="255" x2="255" y1="228.172" y2="-8.622"><stop offset="0" stop-color="#fff" stop-opacity="0"/><stop offset="1" stop-color="#fff"/></linearGradient><linearGradient id="SVGID_5_" gradientUnits="userSpaceOnUse" x1="222.281" x2="22.281" xlink:href="#lg1" y1="344.357" y2="213.69"/><linearGradient id="SVGID_6_" gradientTransform="matrix(-1 0 0 -1 412.278 -2566.914)" gradientUnits="userSpaceOnUse" x1="124.559" x2="-75.441" xlink:href="#lg1" y1="-2880.622" y2="-3011.289"/><linearGradient id="SVGID_7_" gradientUnits="userSpaceOnUse" x1="255" x2="255" y1="350" y2="406.668"><stop offset="0" stop-color="#f82814" stop-opacity="0"/><stop offset=".1249" stop-color="#ed2819" stop-opacity=".125"/><stop offset=".4524" stop-color="#d42724" stop-opacity=".452"/><stop offset=".7531" stop-color="#c5272b" stop-opacity=".753"/><stop offset="1" stop-color="#c0272d"/></linearGradient><linearGradient id="lg2"><stop offset="0" stop-color="#8a7889"/><stop offset="1" stop-color="#6e566e"/></linearGradient><linearGradient id="SVGID_8_" gradientUnits="userSpaceOnUse" x1="255.858" x2="255.858" xlink:href="#lg2" y1="402.977" y2="440.651"/><linearGradient id="SVGID_9_" gradientUnits="userSpaceOnUse" x1="255" x2="255" xlink:href="#lg2" y1="432.147" y2="469.821"/><linearGradient id="lg3"><stop offset="0" stop-color="#ffd945"/><stop offset=".3043" stop-color="#ffcd3e"/><stop offset=".8558" stop-color="#ffad2b"/><stop offset="1" stop-color="#ffa325"/></linearGradient><linearGradient id="SVGID_10_" gradientUnits="userSpaceOnUse" x1="231.284" x2="273.938" xlink:href="#lg3" y1="64.298" y2="64.298"/><linearGradient id="SVGID_11_" gradientTransform="matrix(0 1 -1 0 -1086 -1596)" gradientUnits="userSpaceOnUse" x1="1850.872" x2="1893.525" xlink:href="#lg3" y1="-1555.29" y2="-1555.29"/><linearGradient id="SVGID_12_" gradientTransform="matrix(0 1 -1 0 -1086 -1596)" gradientUnits="userSpaceOnUse" x1="1850.872" x2="1893.525" xlink:href="#lg3" y1="-1126.71" y2="-1126.71"/><linearGradient id="SVGID_13_" gradientTransform="matrix(.707 .707 -.707 .707 -873.542 -573.082)" gradientUnits="userSpaceOnUse" x1="1376.506" x2="1419.159" xlink:href="#lg3" y1="-410.068" y2="-410.068"/><linearGradient id="SVGID_14_" gradientTransform="matrix(-.707 .707 -.707 -.707 -512.918 -2469.543)" gradientUnits="userSpaceOnUse" x1="1376.506" x2="1419.159" xlink:href="#lg3" y1="-2271.932" y2="-2271.932"/><g><g><g><path d="m390.09 420.351h-270.18v-140.667c0-74.608 60.482-135.09 135.09-135.09 74.608 0 135.089 60.482 135.089 135.09v140.667z" fill="url(#SVGID_1_)"/><path d="m316.84 159.577c-25.103-12.945-54.538-12.945-79.642 0-43.502 22.433-73.25 67.789-73.25 120.107v140.667h226.142v-140.667c0-52.319-29.748-97.674-73.25-120.107z" fill="url(#SVGID_2_)"/><path d="m255 144.594c-9.404 0-18.582.966-27.444 2.795 61.448 12.681 107.646 67.091 107.646 132.295v140.667h54.887v-140.667c.001-74.608-60.481-135.09-135.089-135.09z" fill="url(#SVGID_3_)"/><ellipse cx="255" cy="222.749" fill="url(#SVGID_4_)" rx="94.346" ry="68.185"/></g><g><path d="m248.733 365.543-64.803 13.282c-19.528 4.002-37.815-10.917-37.815-30.851v-37.884c0-19.934 18.287-34.853 37.815-30.851l64.803 13.282c7.258 1.487 12.468 7.874 12.468 15.283v42.456c0 7.409-5.211 13.796-12.468 15.283z" fill="url(#SVGID_5_)"/><path d="m261.267 292.522 64.803-13.282c19.528-4.002 37.815 10.917 37.815 30.851v37.884c0 19.934-18.287 34.853-37.815 30.851l-64.803-13.282c-7.258-1.487-12.468-7.874-12.468-15.283v-42.456c0-7.409 5.211-13.796 12.468-15.283z" fill="url(#SVGID_6_)"/></g><path d="m119.91 300h270.179v120.351h-270.179z" fill="url(#SVGID_7_)"/><path d="m404.711 457.242h-297.706v-28.503c0-16.479 13.359-29.837 29.837-29.837h238.032c16.479 0 29.837 13.359 29.837 29.837z" fill="url(#SVGID_8_)"/><path d="m429.071 486.412h-348.142c-8.23 0-14.903-6.672-14.903-14.903v-13.6c0-16.479 13.359-29.837 29.837-29.837h318.273c16.479 0 29.837 13.359 29.837 29.837v13.6c.001 8.231-6.671 14.903-14.902 14.903z" fill="url(#SVGID_9_)"/></g><g><g><path d="m255 105.009c-8.598 0-15.567-6.97-15.567-15.567v-50.287c0-8.598 6.97-15.567 15.567-15.567 8.598 0 15.567 6.97 15.567 15.567v50.286c0 8.598-6.969 15.568-15.567 15.568z" fill="url(#SVGID_10_)"/></g><g><path d="m428.579 278.588c0-8.598 6.97-15.567 15.567-15.567h50.286c8.598 0 15.567 6.97 15.567 15.567 0 8.598-6.97 15.567-15.567 15.567h-50.286c-8.597 0-15.567-6.97-15.567-15.567z" fill="url(#SVGID_11_)"/><path d="m0 278.588c0-8.598 6.97-15.567 15.567-15.567h50.286c8.598 0 15.567 6.97 15.567 15.567 0 8.598-6.97 15.567-15.567 15.567h-50.286c-8.597 0-15.567-6.97-15.567-15.567z" fill="url(#SVGID_12_)"/></g><g><path d="m377.739 155.849c-6.079-6.079-6.079-15.936 0-22.015l35.558-35.558c6.079-6.079 15.936-6.079 22.015 0 6.079 6.079 6.079 15.936 0 22.015l-35.558 35.558c-6.079 6.079-15.936 6.079-22.015 0z" fill="url(#SVGID_13_)"/></g><g><path d="m74.688 98.275c6.079-6.079 15.936-6.079 22.015 0l35.558 35.558c6.079 6.079 6.079 15.936 0 22.015-6.079 6.079-15.936 6.079-22.015 0l-35.558-35.558c-6.08-6.078-6.08-15.935 0-22.015z" fill="url(#SVGID_14_)"/></g></g></g></svg>